<svg width="75" height="28" viewBox="0 0 75 28" fill="none" xmlns="http://www.w3.org/2000/svg">
<g clip-path="url(#clip0_533_46)">
<path d="M9.00591 9.82353V6.59353C9.00591 5.30153 8.49924 4.65553 7.48591 4.65553C6.49791 4.65553 6.00391 5.30153 6.00391 6.59353V8.37953C6.00391 8.78486 6.04191 9.13953 6.11791 9.44353C6.19391 9.7222 6.34591 9.9882 6.57391 10.2415C6.80191 10.4948 7.13124 10.7608 7.56191 11.0395C8.01791 11.2928 8.61324 11.5968 9.34791 11.9515L10.6399 12.5215C11.3492 12.8508 11.9446 13.2182 12.4259 13.6235C12.9072 14.0288 13.2872 14.5228 13.5659 15.1055C13.8699 15.6628 14.0852 16.3215 14.2119 17.0815C14.3386 17.8415 14.4019 18.7408 14.4019 19.7795V20.3875C14.4019 22.6168 13.7939 24.3395 12.5779 25.5555C11.3619 26.7715 9.63924 27.3795 7.40991 27.3795C5.20591 27.3795 3.52124 26.7842 2.35591 25.5935C1.19058 24.4028 0.60791 22.6675 0.60791 20.3875V17.5755H5.92791V20.8055C5.92791 22.0975 6.44724 22.7435 7.48591 22.7435C8.52458 22.7435 9.04391 22.1102 9.04391 20.8435V18.9055C9.04391 18.5002 9.00591 18.1582 8.92991 17.8795C8.85391 17.6008 8.70191 17.3348 8.47391 17.0815C8.27124 16.8282 7.95458 16.5748 7.52391 16.3215C7.11858 16.0682 6.57391 15.7768 5.88991 15.4475L4.44591 14.8015C3.73658 14.4722 3.14124 14.1048 2.65991 13.6995C2.17858 13.2688 1.78591 12.7622 1.48191 12.1795C1.20324 11.5968 1.00058 10.9255 0.87391 10.1655C0.747243 9.3802 0.68391 8.4682 0.68391 7.42953V6.97353C0.68391 4.71886 1.26658 2.99619 2.43191 1.80553C3.59724 0.614865 5.25658 0.0195312 7.40991 0.0195312C9.61391 0.0195312 11.3112 0.627531 12.5019 1.84353C13.7179 3.0342 14.3259 4.7442 14.3259 6.97353V9.82353H9.00591ZM29.623 0.399531V26.9995H23.733L20.047 9.63353H19.743L20.921 26.9995H15.601V0.399531H21.453L25.253 17.8795H25.557L24.303 0.399531H29.623ZM30.8892 6.93553C30.8892 4.57953 31.4972 2.8442 32.7132 1.72953C33.9545 0.589532 35.6138 0.0195312 37.6912 0.0195312C39.8192 0.0195312 41.5038 0.602198 42.7452 1.76753C44.0118 2.90753 44.6452 4.6302 44.6452 6.93553V20.4255C44.6452 22.7562 44.0118 24.5042 42.7452 25.6695C41.5038 26.8095 39.8192 27.3795 37.6912 27.3795C35.6138 27.3795 33.9545 26.8095 32.7132 25.6695C31.4972 24.5295 30.8892 22.7815 30.8892 20.4255V6.93553ZM36.2092 20.8055C36.2092 21.5402 36.3612 22.0595 36.6652 22.3635C36.9945 22.6422 37.3618 22.7815 37.7672 22.7815C38.1978 22.7815 38.5652 22.6422 38.8692 22.3635C39.1732 22.0595 39.3252 21.5402 39.3252 20.8055V6.59353C39.3252 5.85886 39.1732 5.3522 38.8692 5.07353C38.5652 4.79486 38.1978 4.65553 37.7672 4.65553C37.3618 4.65553 36.9945 4.79486 36.6652 5.07353C36.3612 5.3522 36.2092 5.85886 36.2092 6.59353V20.8055ZM45.8442 6.93553C45.8442 4.57953 46.4522 2.8442 47.6682 1.72953C48.9096 0.589532 50.5689 0.0195312 52.6462 0.0195312C54.7742 0.0195312 56.4589 0.602198 57.7002 1.76753C58.9669 2.90753 59.6002 4.6302 59.6002 6.93553V20.4255C59.6002 22.7562 58.9669 24.5042 57.7002 25.6695C56.4589 26.8095 54.7742 27.3795 52.6462 27.3795C50.5689 27.3795 48.9096 26.8095 47.6682 25.6695C46.4522 24.5295 45.8442 22.7815 45.8442 20.4255V6.93553ZM51.1642 20.8055C51.1642 21.5402 51.3162 22.0595 51.6202 22.3635C51.9496 22.6422 52.3169 22.7815 52.7222 22.7815C53.1529 22.7815 53.5202 22.6422 53.8242 22.3635C54.1282 22.0595 54.2802 21.5402 54.2802 20.8055V6.59353C54.2802 5.85886 54.1282 5.3522 53.8242 5.07353C53.5202 4.79486 53.1529 4.65553 52.7222 4.65553C52.3169 4.65553 51.9496 4.79486 51.6202 5.07353C51.3162 5.3522 51.1642 5.85886 51.1642 6.59353V20.8055ZM66.1573 11.4195H66.6893L68.7793 0.399531H74.4413L71.0593 13.6995L74.7453 26.9995H69.1213L66.6893 16.0175H66.1573V26.9995H60.8373V0.399531H66.1573V11.4195Z" fill="#1E1E1E"/>
</g>
<defs>
<clipPath id="clip0_533_46">
<rect width="75" height="28" fill="white"/>
</clipPath>
</defs>
</svg>
